<?xml version="1.0" standalone="no"?>
<!DOCTYPE svg PUBLIC "-//W3C//DTD SVG 20010904//EN"
 "http://www.w3.org/TR/2001/REC-SVG-20010904/DTD/svg10.dtd">
<svg version="1.0" xmlns="http://www.w3.org/2000/svg"
 width="512.000000pt" height="512.000000pt" viewBox="0 0 512.000000 512.000000"
 preserveAspectRatio="xMidYMid meet">
<metadata>
Created by potrace 1.14, written by Peter Selinger 2001-2017
</metadata>
<g transform="translate(0.000000,512.000000) scale(0.100000,-0.100000)"
fill="#000000" stroke="none">
<path d="M258 5110 c-102 -17 -183 -83 -231 -187 l-22 -48 0 -2315 0 -2315 33
-67 c36 -73 79 -114 159 -151 l48 -22 2315 0 2315 0 67 33 c73 36 114 79 151
159 l22 48 0 2315 0 2315 -33 67 c-36 73 -79 114 -159 151 l-48 22 -2285 1
c-1257 1 -2306 -2 -2332 -6z m1188 -1104 c334 -164 572 -334 830 -591 313
-311 536 -657 681 -1055 43 -117 91 -313 99 -401 6 -60 5 -68 -17 -87 -30 -29
-42 -28 -146 12 -111 43 -288 90 -418 112 -123 20 -406 23 -520 5 -225 -35
-417 -106 -581 -212 -68 -44 -101 -45 -129 -6 -24 35 -18 55 46 155 263 405
335 897 208 1412 -49 198 -133 402 -235 571 -19 31 -34 66 -34 78 0 27 42 71
68 71 11 0 77 -29 148 -64z m956 -345 c504 -280 916 -709 1180 -1226 81 -159
135 -295 170 -425 20 -74 20 -81 4 -104 -24 -38 -56 -41 -112 -13 -65 33 -136
47 -272 54 -82 4 -119 11 -133 22 -11 10 -28 53 -43 111 -43 164 -94 299 -185
485 -171 348 -382 638 -668 922 -112 111 -133 136 -133 161 0 32 38 72 69 72
9 0 64 -27 123 -59z m1689 -1842 c14 -14 19 -30 17 -57 -3 -34 -11 -42 -123
-124 -155 -114 -417 -292 -524 -357 l-84 -51 39 0 c53 1 106 27 189 93 108 88
143 102 250 102 79 0 96 -4 145 -29 30 -16 82 -57 116 -92 65 -68 112 -94 171
-94 73 0 109 -72 58 -120 -21 -20 -31 -22 -84 -17 -91 8 -172 49 -232 118 -57
66 -116 99 -178 99 -52 0 -87 -18 -165 -83 -34 -28 -90 -64 -126 -81 -58 -28
-75 -31 -155 -31 -78 0 -97 4 -147 28 -31 15 -84 52 -118 83 -72 64 -93 74
-160 74 -65 0 -86 -9 -190 -84 -109 -78 -169 -101 -270 -101 -63 1 -86 6 -140
31 -36 17 -90 53 -120 81 -71 64 -88 73 -147 73 -58 0 -98 -19 -178 -84 -33
-27 -89 -63 -125 -80 -58 -28 -75 -31 -155 -31 -79 0 -97 4 -149 29 -33 16
-82 52 -110 80 -77 77 -94 86 -156 86 -71 0 -142 -33 -288 -134 -61 -42 -120
-76 -133 -76 -31 0 -69 38 -69 70 0 16 11 36 28 51 35 33 207 151 252 174 19
10 36 19 38 20 2 2 -17 33 -42 71 -65 96 -72 159 -23 186 19 10 2810 193 3010
197 45 1 61 -3 78 -20z"/>
<path d="M1480 3827 c0 -3 14 -36 31 -74 84 -186 157 -464 180 -682 14 -139 7
-413 -15 -530 -31 -165 -89 -350 -147 -463 -11 -22 -18 -42 -16 -45 3 -2 43 9
89 25 221 78 502 114 736 94 158 -14 344 -50 474 -92 l90 -29 -6 41 c-4 22
-29 107 -56 190 -185 562 -590 1079 -1115 1424 -112 73 -245 150 -245 141z"/>
<path d="M2765 3225 c221 -296 364 -541 468 -805 35 -88 107 -308 107 -325 0
-1 37 -5 83 -9 45 -4 100 -11 122 -16 22 -5 41 -7 43 -6 6 7 -74 196 -135 315
-153 301 -426 647 -663 841 l-55 45 30 -40z"/>
<path d="M2420 1599 c-679 -43 -1243 -78 -1253 -78 -14 -1 -11 -10 20 -51 35
-47 40 -50 83 -50 64 0 134 -37 205 -106 77 -76 122 -98 189 -92 65 5 125 34
196 93 68 57 129 89 198 104 101 21 185 -7 283 -94 85 -76 112 -89 184 -89 68
0 116 21 205 89 73 57 127 83 194 93 96 15 195 -10 268 -68 20 -17 41 -30 45
-30 25 0 364 214 526 331 l40 29 -74 -1 c-41 -1 -630 -37 -1309 -80z"/>
</g>
</svg>
